<svg xmlns="http://www.w3.org/2000/svg" width="250" height="250" fill="none" viewBox="0 0 250 250">
<!-- SVG created with Arrow, by QuiverAI (https://quiver.ai) -->
  <path d="m124.7 23.76-116.1 75.06 8.38 15.09 107.7-68.8 108.2 68.8 8.38-15.09-46.84-29.67v-30.36h-21.2v16.65l-48.49-31.68z" fill="#E97118" stroke="#924919" stroke-miterlimit="10" stroke-width=".5"/>
  <path d="m124.7 24.34 0.09 21.06 108.1 67.92 7.8-14.11-46.55-29.77v-30.56h-20.62v16.94l-48.78-31.48z" fill="#B54612" stroke="#8E3D10" stroke-miterlimit="10" stroke-width=".5"/>
  <path d="m129.9 110c-3.96 3.88-2.94 6.85-2.94 17.6v34h58.03c5.67 0 10.28 4.35 10.28 4.35v-13.42c0-11.1 8.43-20.79 17.92-20.79v-7.73c0-9.69-7.12-16.27-14.9-16.27h-55.63c-5.06 0-9.18-1.21-12.76 2.26z" fill="#B54612" stroke="#924919" stroke-miterlimit="10" stroke-width=".5"/>
  <path d="m122 123v38.6h-57.2c-5.99 0-11.65 4.64-11.65 4.64v-14c0-9.99-8.52-20.4-18.01-21.33v-7.91c0-9.7 7.12-15.26 14.9-15.26h56.86c8.97 0 15.1 7.76 15.1 15.26z" fill="#E97118" stroke="#924919" stroke-miterlimit="10" stroke-width=".5"/>
  <path d="m219.1 136.2c-10.18 0-16.93 9.69-16.93 16.23v39.6h-154.5v-40.27c0-8.45-8.09-15.85-17.56-15.85-10.08 0-16.54 8.92-16.54 17.47 0 9.92 8.7 16.25 17.18 16.65v53.75h17.89l7.53-14.8h136.8l7.83 14.8h17.19v-54.04c9.77-1.01 17.9-7.88 17.9-16.81 0-9.42-7.93-16.73-16.77-16.73z" fill="#E97118" stroke="#924919" stroke-miterlimit="10" stroke-width=".5"/>
  <path d="m124.5 192.7v15.7h68.42l7.83 15.38h17.19v-54.04c9.77-1.01 17.9-7.88 17.9-16.81 0-9.42-7.93-16.73-16.77-16.73-10.18 0-16.93 9.69-16.93 16.23v39.3l-77.64 0.97z" fill="#B54612" stroke="#924919" stroke-miterlimit="10" stroke-width=".5"/>
  <path d="m122.1 67.29h-10.7v11.37h10.7v-11.37z" fill="#E97118" stroke="#924919" stroke-miterlimit="10" stroke-width=".5"/>
  <path d="m137.6 67.29h-10.93v11.37h10.93v-11.37z" fill="url(#paint0_linear_116_1295)" stroke="#883A10" stroke-miterlimit="10" stroke-width=".5"/>
  <path d="m122.1 83.93h-10.7v10.6h10.7v-10.6z" fill="#E97118" stroke="#924919" stroke-miterlimit="10" stroke-width=".5"/>
  <path d="m137.6 83.93h-10.93v10.6h10.93v-10.6z" fill="url(#paint1_linear_116_1295)" stroke="#883A10" stroke-miterlimit="10" stroke-width=".5"/>
  <path d="m127.1 117.2c10.28 1.57 18.8-0.58 28.04-9.31h-6.19c-4.26 4.38-8.51 7-17.66 7.1l-4.19 2.21z" fill="#D16218"/>
  <path d="m127.1 120.6c12.29 1.11 20.17 0 29.59-4.46 11.7-5.67 18.3-7.92 32.48-7.92h9.67c4.81 0 8.25 1.39 10.76 3.21-2.46-2.37-5.99-3.71-10.8-3.71h-14.18c-11.32 0-18.07 3.99-27.5 8.42-8.32 4.07-16.8 4.46-30.02 3.04v1.42z" fill="#D16218"/>
  <path d="m127.1 125.9c12 0.2 20.17 0.2 33.05-4.85 12.78-5.47 18.55-7.28 29.02-7.28h10.12c5.1 0 9.81 0.92 13.61 2.44l-0.34 2.65c-4.09-1.67-8.56-2.35-14.33-2.35h-9.16c-10.86 0-18.18 4.25-28.88 9.29-10.46 4.95-19.09 4.23-33.14 4.23l0.05-4.13z" fill="#D16218"/>
  <path d="m127.1 134.8c8.89 0 16.62-0.58 25.66-3.58-8.99 2.61-16.1 1.83-25.66 1.73v1.85z" fill="#D16218"/>
  <path d="m164 133.1c12.14-3.26 16.54-10.23 32.2-10.23h7.53c4 0 7.19 0.87 9.2 1.54v2.34c-2.51-0.98-6.1-1.85-10.9-1.85h-6.24c-11.84 0-17.66 5.87-31.79 8.2z" fill="#D16218"/>
  <path d="m176.8 135.4c4.96 2.05 4.38 3.22 11.32 3.22h7.22c2.42 0 4.83-1.37 5.85-2.44-2.27 0.73-4.07 1.07-7.06 1.07h-6.34c-4.56 0-5.34-4.86 0.53-6.13 4.91-1.47 6.87-1.57 11.32-1.57h4.06c2.26 0 4.68 0.19 6.8 0.39l1.02-1.37c-2.17-0.49-5.3-0.88-7.82-0.88h-6.04c-4.46 0-8.51 0.98-11.51 1.86-7.14 2.54-6.46 4.69-9.35 5.85z" fill="#D16218"/>
  <path d="m127.1 138.8c5.06-0.58 9.91-1.46 16.67-1.46 12.67 0 17.23 2.34 23.74 5.07 6.55 2.83 11.2 3.8 17.76 3.8h4.75c2.95 0 6.23-1.07 7.88-1.94l-0.73 2.04c-1.7 0.78-5.08 1.55-9.04 1.55h-4.45c-6.55 0-12.69-2.43-18.57-4.96-5.57-2.93-12.12-4.58-20.86-4.58-5.58 0-10.86 0.48-17.15 1.26v-0.78z" fill="#D16218"/>
  <path d="m127 145.6c4.06-0.78 6.23-0.87 10.19-0.87 9.87 0 16.01 3.02 21.58 5.16 6.5 2.35 12.85 3.91 19.4 3.91h8.43c3.04 0 6.52-0.68 8.59-1.36v1.76c-2.17 0.58-5.25 0.97-8.39 0.97h-9.15c-7.32 0-13.87-2.24-20.42-5.08-6.14-2.63-11.33-4-19.97-4-3.68 0-6.43 0.29-10.21 1.07l-0.05-1.56z" fill="#D16218"/>
  <path d="m127 152.2c2.75-0.87 5.26-1.16 8.74-1.16 6.55 0 11.92 2.63 16.47 5.36 3.49 2.15 5.95 3.52 10.51 3.52h4.45c1.02 0 1.56-0.2 2.43-0.39l-1.02 0.48h-7.83c-3.8 0-7.6-1.85-11.35-4-4-2.05-7.34-3.42-13.37-3.42-3.04 0-5.79 0.3-9.03 1.08v-1.47z" fill="#D16218"/>
  <path d="m65.25 167.1h119c7.83 0 10.96 6.17 10.96 11.22v8.12h-141.4v-7.54c0-6.85 4.86-11.8 11.41-11.8z" fill="#E97118" stroke="#924919" stroke-miterlimit="10" stroke-width=".5"/>
  <path d="m124.5 167.6v18.35h70.77v-8.12c0-5.05-4.15-10.23-10.7-10.23h-60.07z" fill="#B54612" stroke="#924919" stroke-miterlimit="10" stroke-width=".5"/>
  <defs>
    <linearGradient id="paint0_linear_116_1295" x1="126.6" x2="137.6" y1="72.98" y2="72.98" gradientUnits="userSpaceOnUse">
      <stop stop-color="#B54612" offset="0"/>
      <stop stop-color="#9B3A10" offset="1"/>
    </linearGradient>
    <linearGradient id="paint1_linear_116_1295" x1="126.6" x2="137.6" y1="89.23" y2="89.23" gradientUnits="userSpaceOnUse">
      <stop stop-color="#9B3A10" offset="0"/>
      <stop stop-color="#A83E11" offset="1"/>
    </linearGradient>
  </defs>
</svg>